<?xml version="1.0" standalone="no"?>
<!DOCTYPE svg PUBLIC "-//W3C//DTD SVG 20010904//EN"
 "http://www.w3.org/TR/2001/REC-SVG-20010904/DTD/svg10.dtd">
<svg version="1.0" xmlns="http://www.w3.org/2000/svg"
 width="435.000000pt" height="435.000000pt" viewBox="0 0 435.000000 435.000000"
 preserveAspectRatio="xMidYMid meet">

<g transform="translate(0.000000,435.000000) scale(0.100000,-0.100000)"
fill="#000000" stroke="none">
<path d="M3305 4078 c-11 -6 -61 -55 -111 -108 -50 -54 -210 -226 -355 -382
-145 -155 -345 -371 -443 -478 -98 -107 -187 -203 -196 -213 -17 -18 -18 -18
-45 7 -44 41 -68 34 -120 -31 -25 -32 -45 -68 -45 -79 0 -41 -60 -54 -248 -54
-92 0 -184 -5 -204 -10 -49 -14 -141 -83 -247 -185 -191 -184 -506 -416 -751
-551 -58 -32 -183 -94 -279 -139 -96 -45 -176 -85 -178 -91 -1 -5 6 -20 16
-34 l19 -24 79 22 c43 13 145 48 227 78 81 30 150 53 152 51 7 -6 -207 -109
-318 -153 -54 -22 -98 -43 -98 -48 0 -10 78 -118 114 -158 14 -16 32 -28 41
-28 42 0 385 191 522 292 58 43 76 49 47 16 -66 -74 -349 -291 -467 -357 l-57
-33 41 -49 c22 -27 46 -49 52 -49 13 0 150 86 242 153 39 28 64 43 56 33 -35
-43 -171 -172 -226 -215 l-30 -23 70 -65 c112 -105 106 -103 170 -53 73 56
428 403 490 478 27 34 51 59 53 57 12 -12 -215 -300 -417 -528 -57 -65 -102
-119 -100 -120 2 -2 22 -17 45 -35 l41 -31 54 57 c92 95 214 241 297 356 25
34 49 66 54 71 26 25 -112 -227 -207 -380 -96 -156 -104 -171 -88 -183 29 -21
161 -92 172 -92 12 0 193 305 267 452 19 39 38 68 40 65 9 -8 -80 -216 -166
-387 -45 -89 -80 -163 -78 -165 8 -6 131 -60 185 -80 l63 -24 14 27 c7 15 50
106 94 202 142 309 416 862 481 970 134 224 152 257 166 304 19 62 19 121 1
239 -8 50 -18 121 -21 156 -7 60 -6 64 11 56 11 -4 26 -9 35 -12 21 -6 129 93
129 119 0 11 -13 37 -30 57 l-29 38 45 44 c26 24 100 103 167 174 67 72 178
191 247 265 69 74 198 212 285 305 87 94 207 220 265 281 61 62 109 121 111
135 8 43 -2 69 -31 84 -33 17 -47 18 -75 3z"/>
<path d="M2973 2961 c-41 -19 -64 -49 -77 -103 l-6 -27 -221 -3 -221 -3 -24
-28 -23 -27 19 -33 c37 -60 29 -83 -65 -175 l-85 -84 9 -57 c6 -31 12 -71 15
-89 2 -19 6 -36 9 -38 2 -2 272 -5 600 -7 l597 -2 27 -28 28 -27 0 -644 0
-644 -24 -26 -24 -26 -848 0 -847 0 -31 25 c-19 17 -33 41 -39 68 l-9 42 -76
-155 c-41 -85 -89 -185 -105 -222 l-31 -68 1095 0 c967 0 1099 2 1132 16 47
19 88 58 113 106 18 36 19 72 19 1006 l0 969 -23 44 c-16 29 -40 54 -72 74
-48 30 -49 30 -204 30 l-156 0 -3 -94 c-1 -52 -8 -101 -14 -108 -17 -21 -56
-15 -74 12 -24 37 -17 173 12 212 30 40 82 73 115 73 40 0 38 27 -3 44 -68 28
-147 -13 -173 -89 l-13 -40 -114 -5 -113 -5 0 -93 c-1 -72 -4 -96 -18 -109
-13 -14 -21 -15 -42 -5 -14 7 -30 23 -35 38 -13 33 -13 119 0 166 12 42 70 98
103 98 12 0 29 5 37 10 13 8 13 11 0 24 -25 26 -71 28 -117 7z"/>
<path d="M1850 2952 c-37 -18 -87 -99 -71 -115 14 -14 57 3 92 39 18 19 40 34
49 34 9 0 25 7 36 15 19 15 19 15 0 30 -26 20 -63 19 -106 -3z"/>
<path d="M1465 2826 c-17 -7 -39 -26 -49 -41 -10 -15 -14 -25 -9 -23 71 34
111 48 139 48 35 0 46 13 18 24 -25 10 -67 6 -99 -8z"/>
<path d="M2370 1990 l0 -110 88 0 c48 0 97 -3 110 -6 22 -6 22 -6 22 110 l0
116 -110 0 -110 0 0 -110z"/>
<path d="M2750 1988 l0 -113 110 0 110 0 0 113 0 112 -110 0 -110 0 0 -112z"/>
<path d="M3130 1985 l0 -115 115 0 116 0 -3 113 -3 112 -112 3 -113 3 0 -116z"/>
<path d="M2182 1895 c-10 -21 -9 -25 3 -25 9 0 15 10 15 25 0 14 -2 25 -3 25
-2 0 -9 -11 -15 -25z"/>
<path d="M2064 1663 c-9 -21 -29 -67 -45 -102 -16 -35 -29 -68 -29 -72 0 -5
50 -9 110 -9 l111 0 -3 108 -3 107 -63 3 -63 3 -15 -38z"/>
<path d="M2370 1621 c0 -43 -3 -93 -6 -110 l-6 -31 116 0 116 0 0 110 0 110
-110 0 -110 0 0 -79z"/>
<path d="M2750 1590 l0 -110 110 0 110 0 0 110 0 110 -110 0 -110 0 0 -110z"/>
<path d="M3140 1636 c0 -35 -3 -84 -6 -110 l-7 -46 117 0 116 0 0 94 c0 52 -3
101 -6 110 -5 13 -25 16 -110 16 l-104 0 0 -64z"/>
<path d="M1950 1200 l0 -110 130 0 131 0 -3 108 -3 107 -127 3 -128 3 0 -111z"/>
<path d="M2370 1200 l0 -110 110 0 110 0 0 104 c0 85 -3 105 -16 110 -9 3 -58
6 -110 6 l-94 0 0 -110z"/>
<path d="M2750 1195 l0 -105 109 0 c127 0 118 -10 113 121 l-3 89 -110 0 -109
0 0 -105z"/>
</g>
</svg>
